/* XPM */
static char *New_Piskel_8_1707910588[] = {
/* columns rows colors chars-per-pixel */
"64 64 11 1 ",
"  c black",
". c #686868",
"X c gray45",
"o c #7E7E7E",
"O c #D64325",
"+ c #F94F2C",
"@ c #FA9F32",
"# c #F7C837",
"$ c #FFDC6F",
"% c #8E8E8E",
"& c white",
/* pixels */
"ooooXXXXXXXXXXXXXXXXoooo%%%%%%......%%%%ooooXXXXXXXXXXXXXXXXoooo",
"ooooXXXXXXXXXXXXXXXXoooo%%%%%%......%%%%ooooXXXXXXXXXXXXXXXXoooo",
"ooooooXXXXXXXXXXXXoooo%%%%%%%%%%%%..XX%%%%ooooXXXX..XXXXXXXXXXoo",
"ooooooXXXXXXXXXXXXoooo%%%%%%%%%%%%..XX%%%%ooooXXXX..XXXXXXXXXXoo",
"XXoooooooo%%%%%%%%%%            XXXXXX%%%%%%%%%%....ooooooXXXXXX",
"XXoooooooo%%%%%%%%%%            XXXXXX%%%%%%%%%%....ooooooXXXXXX",
"XX..oooooooo%%%%%%  $$$$$$$$$$$$  XX%%%%%%%%%%%%%%..XXooooooXXXX",
"XX..oooooooo%%%%%%  $$$$$$$$$$$$  XX%%%%%%%%%%%%%%..XXooooooXXXX",
"ooXX..XXXXXXXXoo  $$############$$  %%%%oooooooo%%%%%%%%%%oooooo",
"ooXX..XXXXXXXXoo  $$############$$  %%%%oooooooo%%%%%%%%%%oooooo",
"oo......XXXXXX  $$################$$  XXXXXXXXoooo%%%%%%oooooooo",
"oo......XXXXXX  $$################$$  XXXXXXXXoooo%%%%%%oooooooo",
"ooooXX%%%%oo  $$####################$$  XXXXXXXXXXXXXX%%XXXXXXoo",
"ooooXX%%%%oo  $$####################$$  XXXXXXXXXXXXXX%%XXXXXXoo",
"XX%%%%%%%%oo  ########################  XXXX%%XX%%XXXXXXXXXXXXXX",
"XX%%%%%%%%oo  ########################  XXXX%%XX%%XXXXXXXXXXXXXX",
"oooo%%%%%%XX  ######&&&&&&############  %%%%%%%%%%%%%%%%%%%%....",
"oooo%%%%%%XX  ######&&&&&&############  %%%%%%%%%%%%%%%%%%%%....",
"oooooooo%%%%  @@####    &&############  %%%%%%%%%%%%%%%%%%......",
"oooooooo%%%%  @@####    &&############  %%%%%%%%%%%%%%%%%%......",
"XXXXXXXXXX  ++  ####&&  &&############  oooo%%XXXXXXXXXX....oooo",
"XXXXXXXXXX  ++  ####&&  &&############  oooo%%XXXXXXXXXX....oooo",
"XXXX%%    ++++  ####    &&############  ooooooooXXXX%%%%XXooooXX",
"XXXX%%    ++++  ####    &&############  ooooooooXXXX%%%%XXooooXX",
"oo%%  ++++++++  @@##################@@  oooo%%%%%%%%%%%%    ..oo",
"oo%%  ++++++++  @@##################@@  oooo%%%%%%%%%%%%    ..oo",
"%%..  OOOOOOOOOO  ################@@  oooooooooo%%%%%%  $$  ....",
"%%..  OOOOOOOOOO  ################@@  oooooooooo%%%%%%  $$  ....",
"oooooo            @@############@@  XX..XXXXXXXXXXXX  $$##  oooo",
"oooooo            @@############@@  XX..XXXXXXXXXXXX  $$##  oooo",
"ooooXXXXXXXXXXXX%%  ############      ..XXXXXX        ####  oooo",
"ooooXXXXXXXXXXXX%%  ############      ..XXXXXX        ####  oooo",
"oooo%%%%%%%%%%    $$############$$$$$$        $$$$$$$$####  oooo",
"oooo%%%%%%%%%%    $$############$$$$$$        $$$$$$$$####  oooo",
"%%oo%%%%%%%%  $$$$####################$$$$$$$$############  %%%%",
"%%oo%%%%%%%%  $$$$####################$$$$$$$$############  %%%%",
"ooXXXXXX%%XX  ################    ########################  %%oo",
"ooXXXXXX%%XX  ################    ########################  %%oo",
"ooooooXXXX  $$####  ##########$$$$              ########@@  oooo",
"ooooooXXXX  $$####  ##########$$$$              ########@@  oooo",
"oooooooo%%  ######  ##############$$$$$$$$$$$$  ########  oooooo",
"oooooooo%%  ######  ##############$$$$$$$$$$$$  ########  oooooo",
"oooooooooo  ######  ######################@@  ##########  oooooo",
"oooooooooo  ######  ######################@@  ##########  oooooo",
"....oooooo  ######  @@################@@@@  ##########@@  %%....",
"....oooooo  ######  @@################@@@@  ##########@@  %%....",
"........oo  ########  @@##########@@@@    ############  %%%%%%..",
"........oo  ########  @@##########@@@@    ############  %%%%%%..",
"XXXXXXXXXXXX  @@######  @@@@@@@@@@    ##############@@  XXoooooo",
"XXXXXXXXXXXX  @@######  @@@@@@@@@@    ##############@@  XXoooooo",
"ooooXXXXXXXX  @@@@######          ################@@  XXXXXXXX%%",
"ooooXXXXXXXX  @@@@######          ################@@  XXXXXXXX%%",
"%%oo%%%%%%%%%%    @@@@######################@@@@@@  oooooooo%%%%",
"%%oo%%%%%%%%%%    @@@@######################@@@@@@  oooooooo%%%%",
"oooooo%%%%XXXX%%%%    @@@@@@@@@@@@@@@@@@@@@@      oooooo%%%%%%%%",
"oooooo%%%%XXXX%%%%    @@@@@@@@@@@@@@@@@@@@@@      oooooo%%%%%%%%",
"ooooooooXXXXXXXXXXXXXX                      %%%%ooooXXXXXXXXoooo",
"ooooooooXXXXXXXXXXXXXX                      %%%%ooooXXXXXXXXoooo",
"ooooooooooooooXXXXXXXXXXXX  ++++++++++  %%%%%%ooXXXXXXXXXXoooooo",
"ooooooooooooooXXXXXXXXXXXX  ++++++++++  %%%%%%ooXXXXXXXXXXoooooo",
"XXXXXXXXXXXXXXXX....%%%%%%            ooooooXXooXXXXXXXXXXoooooo",
"XXXXXXXXXXXXXXXX....%%%%%%            ooooooXXooXXXXXXXXXXoooooo",
"XXXXXXXXXXXXXX....%%%%%%%%%%%%%%ooooooooooXXXXXXXXXXXXXXooooXXXX",
"XXXXXXXXXXXXXX....%%%%%%%%%%%%%%ooooooooooXXXXXXXXXXXXXXooooXXXX"
}
