/* XPM */
static char *New_Piskel_5__1_1707910523[] = {
/* columns rows colors chars-per-pixel */
"64 64 11 1 ",
"  c black",
". c #686868",
"X c gray45",
"o c #7E7E7E",
"O c #D64325",
"+ c #F94F2C",
"@ c #FA9F32",
"# c #F7C837",
"$ c #FFDC6F",
"% c #8E8E8E",
"& c white",
/* pixels */
"ooooXXXXXXXXXXXXXXXXoooo%%%%%%......%%%%ooooXXXXXXXXXXXXXXXXoooo",
"ooooXXXXXXXXXXXXXXXXoooo%%%%%%......%%%%ooooXXXXXXXXXXXXXXXXoooo",
"ooooooXXXXXXXXXXXXoooo%%%%%%%%%%%%..XX%%%%ooooXXXX..XXXXXXXXXXoo",
"ooooooXXXXXXXXXXXXoooo%%%%%%%%%%%%..XX%%%%ooooXXXX..XXXXXXXXXXoo",
"XXoooooooo%%%%%%%%%%%%%%%%%%%%XX            %%%%....ooooooXXXXXX",
"XXoooooooo%%%%%%%%%%%%%%%%%%%%XX            %%%%....ooooooXXXXXX",
"XX..oooooooo%%%%%%%%%%%%%%XXXX  $$$$$$$$$$$$  %%%%..XXooooooXXXX",
"XX..oooooooo%%%%%%%%%%%%%%XXXX  $$$$$$$$$$$$  %%%%..XXooooooXXXX",
"ooXX..XXXXXXXXooooXXXX%%XXXX  $$############$$  %%%%%%%%%%oooooo",
"ooXX..XXXXXXXXooooXXXX%%XXXX  $$############$$  %%%%%%%%%%oooooo",
"oo......XXXXXXXXXXXX..XXXX  $$################$$  %%%%%%oooooooo",
"oo......XXXXXXXXXXXX..XXXX  $$################$$  %%%%%%oooooooo",
"ooooXX%%%%oooooooo......  $$####################$$  XX%%XXXXXXoo",
"ooooXX%%%%oooooooo......  $$####################$$  XX%%XXXXXXoo",
"XX%%%%%%%%ooXXoooooooo..  ########################  XXXXXXXXXXXX",
"XX%%%%%%%%ooXXoooooooo..  ########################  XXXXXXXXXXXX",
"oooo%%%%%%XXXXXXXXoooooo  ############&&&&&&######  %%%%%%%%....",
"oooo%%%%%%XXXXXXXXoooooo  ############&&&&&&######  %%%%%%%%....",
"oooooooo%%%%XXXXXXXXXXXX  ############&&    ####@@  %%%%%%......",
"oooooooo%%%%XXXXXXXXXXXX  ############&&    ####@@  %%%%%%......",
"XXXXXXXXXXXXooXXXXXXXXXX  ############&&  &&####  ++  XX....oooo",
"XXXXXXXXXXXXooXXXXXXXXXX  ############&&  &&####  ++  XX....oooo",
"XXXX%%XXXXooooooooooXXXX  ############&&    ####  ++++    ooooXX",
"XXXX%%XXXXooooooooooXXXX  ############&&    ####  ++++    ooooXX",
"oo%%    ooooXXoooooo%%%%  @@##################@@  ++++++++  ..oo",
"oo%%    ooooXXoooooo%%%%  @@##################@@  ++++++++  ..oo",
"%%..  $$  oo%%ooooXXXX%%%%  @@################  OOOOOOOOOO  ....",
"%%..  $$  oo%%ooooXXXX%%%%  @@################  OOOOOOOOOO  ....",
"oooo  ##$$  XXXXXXXXXXXX%%%%  @@############@@            oooooo",
"oooo  ##$$  XXXXXXXXXXXX%%%%  @@############@@            oooooo",
"oooo  ####        XXXXXXXX      ############  XXXX%%XXXXoooooooo",
"oooo  ####        XXXXXXXX      ############  XXXX%%XXXXoooooooo",
"oooo  ####$$$$$$$$        $$$$$$############$$    %%%%%%%%%%oooo",
"oooo  ####$$$$$$$$        $$$$$$############$$    %%%%%%%%%%oooo",
"%%oo  ############$$$$$$$$####################$$$$  %%%%%%%%%%%%",
"%%oo  ############$$$$$$$$####################$$$$  %%%%%%%%%%%%",
"ooXX  ########################    ################  %%%%%%%%%%oo",
"ooXX  ########################    ################  %%%%%%%%%%oo",
"oooo  @@########              $$$$##########  ####$$  XX%%oooooo",
"oooo  @@########              $$$$##########  ####$$  XX%%oooooo",
"oooooo  ########  $$$$$$$$$$$$##############  ######  oooooooooo",
"oooooo  ########  $$$$$$$$$$$$##############  ######  oooooooooo",
"oooooo  ##########  @@######################  ######  oooooooooo",
"oooooo  ##########  @@######################  ######  oooooooooo",
"....oo  @@##########  @@@@################@@  ######  %%%%%%....",
"....oo  @@##########  @@@@################@@  ######  %%%%%%....",
"........  ############    @@@@##########@@  ########  %%%%%%%%..",
"........  ############    @@@@##########@@  ########  %%%%%%%%..",
"XXXXXXXX  @@##############    @@@@@@@@@@  ######@@  XXXXXXoooooo",
"XXXXXXXX  @@##############    @@@@@@@@@@  ######@@  XXXXXXoooooo",
"ooooXXXXXX  @@################          ######@@@@  XXXXXXXXXX%%",
"ooooXXXXXX  @@################          ######@@@@  XXXXXXXXXX%%",
"%%oo%%%%%%%%  @@@@@@######################@@@@    oooooooooo%%%%",
"%%oo%%%%%%%%  @@@@@@######################@@@@    oooooooooo%%%%",
"oooooo%%%%XXXX      @@@@@@@@@@@@@@@@@@@@@@    XXoooooooo%%%%%%%%",
"oooooo%%%%XXXX      @@@@@@@@@@@@@@@@@@@@@@    XXoooooooo%%%%%%%%",
"ooooooooXXXXXXXXXXXX                      %%%%%%ooooXXXXXXXXoooo",
"ooooooooXXXXXXXXXXXX                      %%%%%%ooooXXXXXXXXoooo",
"ooooooooooooooXXXXXXXXXX  ++++++++++  oo%%%%%%ooXXXXXXXXXXoooooo",
"ooooooooooooooXXXXXXXXXX  ++++++++++  oo%%%%%%ooXXXXXXXXXXoooooo",
"XXXXXXXXXXXXXXXX....%%%%%%            ooooooXXooXXXXXXXXXXoooooo",
"XXXXXXXXXXXXXXXX....%%%%%%            ooooooXXooXXXXXXXXXXoooooo",
"XXXXXXXXXXXXXX....%%%%%%%%%%%%%%ooooooooooXXXXXXXXXXXXXXooooXXXX",
"XXXXXXXXXXXXXX....%%%%%%%%%%%%%%ooooooooooXXXXXXXXXXXXXXooooXXXX",
};

