/* XPM */
static char *New_Piskel_10_1707910730[] = {
/* columns rows colors chars-per-pixel */
"64 64 13 1 ",
"  c black",
". c #686868",
"X c gray45",
"o c #7E7E7E",
"O c #004E89",
"+ c #0473B8",
"@ c #1378BC",
"# c #3292A8",
"$ c #4DA9D8",
"% c #8E8E8E",
"& c #84C7E2",
"* c #C8C8C8",
"= c #DBDCDE",
/* pixels */
"ooooXXXXXXXXXXXXXXXXoooo%%%%%%......%%%%ooooXXXXXXXXXXXXXXXXoooo",
"ooooXXXXXXXXXXXXXXXXoooo%%%%%%......%%%%ooooXXXXXXXXXXXXXXXXoooo",
"ooooooXXXXXXXXXXXXoooo%%%%%%%%%%%%..XX%%%%ooooXXXX..XXXXXXXXXXoo",
"ooooooXXXXXXXXXXXXoooo%%%%%%%%%%%%..XX%%%%ooooXXXX..XXXXXXXXXXoo",
"XXoooooooo%%%%%%%%%%%%%%%%            %%%%%%%%%%....ooooooXXXXXX",
"XXoooooooo%%%%%%%%%%%%%%%%            %%%%%%%%%%....ooooooXXXXXX",
"XX..oooooooo%%%%%%%%%%%%%%  ++++==++  %%%%%%%%%%%%..XXooooooXXXX",
"XX..oooooooo%%%%%%%%%%%%%%  ++++==++  %%%%%%%%%%%%..XXooooooXXXX",
"ooXX..XXXXXXXXooooXXXX%%XX  OOOOOOOO  %%oooooooo%%%%%%%%%%oooooo",
"ooXX..XXXXXXXXooooXXXX%%XX  OOOOOOOO  %%oooooooo%%%%%%%%%%oooooo",
"oo......XXXXXXXXXXXX..XXXXXX  $$$$  %%XXXXXXXXoooo%%%%%%oooooooo",
"oo......XXXXXXXXXXXX..XXXXXX  $$$$  %%XXXXXXXXoooo%%%%%%oooooooo",
"ooooXX%%%%oooooooo......    $$$$$$$$    XXXXXXXXXXXXXX%%XXXXXXoo",
"ooooXX%%%%oooooooo......    $$$$$$$$    XXXXXXXXXXXXXX%%XXXXXXoo",
"XX%%%%%%%%ooXXoooooooo  $$$$$$$$$$**$$$$  XX%%XX%%XXXXXXXXXXXXXX",
"XX%%%%%%%%ooXXoooooooo  $$$$$$$$$$**$$$$  XX%%XX%%XXXXXXXXXXXXXX",
"oooo%%%%%%XXXXXXXXoooo  &&$$$$$$$$$$**$$  %%%%%%%%%%%%%%%%%%....",
"oooo%%%%%%XXXXXXXXoooo  &&$$$$$$$$$$**$$  %%%%%%%%%%%%%%%%%%....",
"oooooooo%%%%XXXXXXXX  &&&&##########****$$  %%%%%%%%%%%%%%......",
"oooooooo%%%%XXXXXXXX  &&&&##########****$$  %%%%%%%%%%%%%%......",
"XXXXXXXXXXXXooXXXXXX  &&$$##$$$$$$$$****$$  %%XXXXXXXXXX....oooo",
"XXXXXXXXXXXXooXXXXXX  &&$$##$$$$$$$$****$$  %%XXXXXXXXXX....oooo",
"XXXX%%XXXXooooooooooXX@@OOOOOOOOOOOO@@@@OOooooooXXXX%%%%XXooooXX",
"XXXX%%XXXXooooooooooXX@@OOOOOOOOOOOO@@@@OOooooooXXXX%%%%XXooooXX",
"oo%%XX%%ooooXXoooooo  &&$$##########****$$  %%%%%%%%%%%%......oo",
"oo%%XX%%ooooXXoooooo  &&$$##########****$$  %%%%%%%%%%%%......oo",
"%%..%%%%%%oo%%ooooXX  &&$$##########****$$  oooo%%%%%%%%%%%%....",
"%%..%%%%%%oo%%ooooXX  &&$$##########****$$  oooo%%%%%%%%%%%%....",
"ooooooooooXXXXXXXXXX  &&$$##$$$$$$$$****$$  XXXXXXXXXX%%oooooooo",
"ooooooooooXXXXXXXXXX  &&$$##$$$$$$$$****$$  XXXXXXXXXX%%oooooooo",
"ooooXXXXXXXXXXXX%%XXXX@@OOOOOOOOOOOO@@@@OOXXXXXXXX%%XXXXoooooooo",
"ooooXXXXXXXXXXXX%%XXXX@@OOOOOOOOOOOO@@@@OOXXXXXXXX%%XXXXoooooooo",
"oooo%%%%%%%%%%..%%%%  &&$$##########****$$  %%%%%%%%%%%%%%%%oooo",
"oooo%%%%%%%%%%..%%%%  &&$$##########****$$  %%%%%%%%%%%%%%%%oooo",
"%%oo%%%%%%%%%%....%%  &&$$##########****$$  %%%%%%%%%%%%%%%%%%%%",
"%%oo%%%%%%%%%%....%%  &&$$##########****$$  %%%%%%%%%%%%%%%%%%%%",
"ooXXXXXX%%XXXXXX..XX  &&$$##$$$$$$$$****$$  XXXXXXXX%%%%%%%%%%oo",
"ooXXXXXX%%XXXXXX..XX  &&$$##$$$$$$$$****$$  XXXXXXXX%%%%%%%%%%oo",
"ooooooXXXXXXXXXXXXXXXX@@OOOOOOOOOOOO@@@@OOXXXXXXXXXXXXXX%%oooooo",
"ooooooXXXXXXXXXXXXXXXX@@OOOOOOOOOOOO@@@@OOXXXXXXXXXXXXXX%%oooooo",
"oooooooo%%%%XXXXXXXX  &&$$##########****$$  %%%%%%XXXXoooooooooo",
"oooooooo%%%%XXXXXXXX  &&$$##########****$$  %%%%%%XXXXoooooooooo",
"oooooooooo%%%%XXXXXX  &&$$##########****$$  %%%%%%%%oooooooooooo",
"oooooooooo%%%%XXXXXX  &&$$##########****$$  %%%%%%%%oooooooooooo",
"....oooooooooo%%XXXX  &&$$##$$$$$$$$****$$  oooooo%%%%%%%%%%....",
"....oooooooooo%%XXXX  &&$$##$$$$$$$$****$$  oooooo%%%%%%%%%%....",
"........ooooXXXXXXXXXX@@OOOOOOOOOOOO@@@@OOooooooooXX%%%%%%%%%%..",
"........ooooXXXXXXXXXX@@OOOOOOOOOOOO@@@@OOooooooooXX%%%%%%%%%%..",
"XXXXXXXXXXXXXXXXXXXX  &&$$##########****$$  XXXXXXXXXXXXXXoooooo",
"XXXXXXXXXXXXXXXXXXXX  &&$$##########****$$  XXXXXXXXXXXXXXoooooo",
"ooooXXXXXXXXXXXXXXXX  &&$$############**$$  XXXXXXXXXXXXXXXXXX%%",
"ooooXXXXXXXXXXXXXXXX  &&$$############**$$  XXXXXXXXXXXXXXXXXX%%",
"%%oo%%%%%%%%%%%%%%%%  $$&&$$##########$$$$  ..XXXXoooooooooo%%%%",
"%%oo%%%%%%%%%%%%%%%%  $$&&$$##########$$$$  ..XXXXoooooooooo%%%%",
"oooooo%%%%XXXX%%%%%%  $$$$$$$$$$$$$$$$$$$$  XXXXoooooooo%%%%%%%%",
"oooooo%%%%XXXX%%%%%%  $$$$$$$$$$$$$$$$$$$$  XXXXoooooooo%%%%%%%%",
"ooooooooXXXXXXXXXXXX                        %%%%ooooXXXXXXXXoooo",
"ooooooooXXXXXXXXXXXX                        %%%%ooooXXXXXXXXoooo",
"ooooooooooooooXXXXXXXXXXXXXXXXXXoooooooo%%%%%%ooXXXXXXXXXXoooooo",
"ooooooooooooooXXXXXXXXXXXXXXXXXXoooooooo%%%%%%ooXXXXXXXXXXoooooo",
"XXXXXXXXXXXXXXXX....%%%%%%%%ooooooooooooooooXXooXXXXXXXXXXoooooo",
"XXXXXXXXXXXXXXXX....%%%%%%%%ooooooooooooooooXXooXXXXXXXXXXoooooo",
"XXXXXXXXXXXXXX....%%%%%%%%%%%%%%ooooooooooXXXXXXXXXXXXXXooooXXXX",
"XXXXXXXXXXXXXX....%%%%%%%%%%%%%%ooooooooooXXXXXXXXXXXXXXooooXXXX",
};
