/* XPM */
static char *New_Piskel_7_1707910423[] = {
/* columns rows colors chars-per-pixel */
"64 64 12 1 ",
"  c black",
". c #343434",
"X c #0D4C00",
"o c #686868",
"O c gray45",
"+ c #7E7E7E",
"@ c red",
"# c #1A9D00",
"$ c #8E8E8E",
"% c #AFAFAF",
"& c #E4E4E4",
"* c white",
/* pixels */
"++++OOOOOOOOOOOOOOOO++++$$$$$$oooooo$$$$++++OOOOOOOOOOOOOOOO++++",
"++++OOOOOOOOOOOOOOOO++++$$$$$$oooooo$$$$++++OOOOOOOOOOOOOOOO++++",
"++++++OOOOOOOOOOOO++++$$$$$$$$$$$$ooOO$$            OOOOOOOOOO++",
"++++++OOOOOOOOOOOO++++$$$$$$$$$$$$ooOO$$            OOOOOOOOOO++",
"OO++++++++$$$$$$$$$$$$$$$$$$$$OOOOOO      ........      ++OOOOOO",
"OO++++++++$$$$$$$$$$$$$$$$$$$$OOOOOO      ........      ++OOOOOO",
"OOoo++++++++$$$$$$$$$$$$$$OOOOOOOO    ................    ++OOOO",
"OOoo++++++++$$$$$$$$$$$$$$OOOOOOOO    ................    ++OOOO",
"++OOooOOOOOOOO++++OOOO$$OOOOOOOO    ........    ........    ++++",
"++OOooOOOOOOOO++++OOOO$$OOOOOOOO    ........    ........    ++++",
"++ooooooOOOOOOOOOOOOooOOOOOOOOOO  ......            ......  ++++",
"++ooooooOOOOOOOOOOOOooOOOOOOOOOO  ......            ......  ++++",
"++++OO$$$$++++++++oooooo++++OO    ....  &&&&&&    @@  ....    ++",
"++++OO$$$$++++++++oooooo++++OO    ....  &&&&&&    @@  ....    ++",
"OO$$$$$$$$++OO++++++++oo++++$$  ......  &&&&&&&&@@@@@@......  OO",
"OO$$$$$$$$++OO++++++++oo++++$$  ......  &&&&&&&&@@@@@@......  OO",
"++++$$$$$$OOOOOOOO++++++++OOOO  ....  &&&&&&&&@@@@@@@@@@....  oo",
"++++$$$$$$OOOOOOOO++++++++OOOO  ....  &&&&&&&&@@@@@@@@@@....  oo",
"++++++++$$$$OOOOOOOOOOOOOOOOOO  ....        @@@@@@%%@@  ....  oo",
"++++++++$$$$OOOOOOOOOOOOOOOOOO  ....        @@@@@@%%@@  ....  oo",
"OOOOOOOOOOOO++OOOOOOOOOOOOOOOO  ......    @@@@@@@@%%  ......  ++",
"OOOOOOOOOOOO++OOOOOOOOOOOOOOOO  ......    @@@@@@@@%%  ......  ++",
"OOOO$$OOOO++++++++++OOOOOOOOOO    ....      @@@@@@%%  ....    OO",
"OOOO$$OOOO++++++++++OOOOOOOOOO    ....      @@@@@@%%  ....    OO",
"++$$OO$$++++OO++++++$$$$$$$$$$$$  ......      @@  %%......  oo++",
"++$$OO$$++++OO++++++$$$$$$$$$$$$  ......      @@  %%......  oo++",
"$$oo$$$$$$++$$++++OOOO$$XXXX$$OO    ........    ........    oooo",
"$$oo$$$$$$++$$++++OOOO$$XXXX$$OO    ........    ........    oooo",
"++++++++++OOOOOOOOOOXX####XXOOOOOO    ................    ++++++",
"++++++++++OOOOOOOOOOXX####XXOOOOOO    ................    ++++++",
"++++OOOOOOOOOOOO$$OO##****##XXOOOOoo      ........      ++++++++",
"++++OOOOOOOOOOOO$$OO##****##XXOOOOoo      ........      ++++++++",
"++++$$$$$$$$$$ooXX##********##XX####++$$            $$$$$$$$++++",
"++++$$$$$$$$$$ooXX##********##XX####++$$            $$$$$$$$++++",
"$$++$$$$$$$$$$oo##************##**##$$$$$$$$$$$$$$$$$$$$$$$$$$$$",
"$$++$$$$$$$$$$oo##************##**##$$$$$$$$$$$$$$$$$$$$$$$$$$$$",
"++OOOOOO$$OOOOXX##******##********##oo++++OOOOOOOOOO$$$$$$$$$$++",
"++OOOOOO$$OOOOXX##******##********##oo++++OOOOOOOOOO$$$$$$$$$$++",
"++++++OOOOXXXX##******##XX##******##XX++++OOOOOOOOOOOOOO$$++++++",
"++++++OOOOXXXX##******##XX##******##XX++++OOOOOOOOOOOOOO$$++++++",
"++++++++$$$$XXXX##****##XX********####XXXXOO$$$$$$OOOO++++++++++",
"++++++++$$$$XXXX##****##XX********####XXXXOO$$$$$$OOOO++++++++++",
"++++++++++XX##########XXXX##########**##XXXX$$$$$$$$++++++++++++",
"++++++++++XX##########XXXX##########**##XXXX$$$$$$$$++++++++++++",
"oooo++XXXX##********##XXXXXXXXXX##****##XXXXXX++++$$$$$$$$$$oooo",
"oooo++XXXX##********##XXXXXXXXXX##****##XXXXXX++++$$$$$$$$$$oooo",
"ooooooooXXXX##******##XXXXXXXX##********##XX++++++OO$$$$$$$$$$oo",
"ooooooooXXXX##******##XXXXXXXX##********##XX++++++OO$$$$$$$$$$oo",
"OOOOOOXXXX##********##XXXXXXXX####******##XXOOOOOOOOOOOOOO++++++",
"OOOOOOXXXX##********##XXXXXXXX####******##XXOOOOOOOOOOOOOO++++++",
"++++OOXX##******##**##XXXX####**####******##XXOOOOOOOOOOOOOOOO$$",
"++++OOXX##******##**##XXXX####**####******##XXOOOOOOOOOOOOOOOO$$",
"$$++$$XX##******##########****************##XXOOOO++++++++++$$$$",
"$$++$$XX##******##########****************##XXOOOO++++++++++$$$$",
"++++++XX##************##******************##XXOO++++++++$$$$$$$$",
"++++++XX##************##******************##XXOO++++++++$$$$$$$$",
"++++++XX##************####****************##XX$$++++OOOOOOOO++++",
"++++++XX##************####****************##XX$$++++OOOOOOOO++++",
"++++++XX################XX####**############XX++OOOOOOOOOO++++++",
"++++++XX################XX####**############XX++OOOOOOOOOO++++++",
"OOOOOOOOXXXXXXXXXXXXXXXXXXXXXX##XXXXXXXXXXXXOO++OOOOOOOOOO++++++",
"OOOOOOOOXXXXXXXXXXXXXXXXXXXXXX##XXXXXXXXXXXXOO++OOOOOOOOOO++++++",
"OOOOOOOOOOOOOOoooo$$$$$$$$$$$$$$++++++++++OOOOOOOOOOOOOO++++OOOO",
"OOOOOOOOOOOOOOoooo$$$$$$$$$$$$$$++++++++++OOOOOOOOOOOOOO++++OOOO",
};

