/* XPM */
static char *result[] = {
/* columns rows colors chars-per-pixel */
"64 64 5 1 ",
"  c #686868",
". c #747474",
"X c gray50",
"o c #808080",
"O c gray56",
"XXXX................XXXXOOOOOO      OOOOXXXX................XXXX",
"XXXX................XXXXOOOOOO      OOOOXXXX................XXXX",
"XXXXXX............XXXXOOOOOOOOOOOO  ..OOOOXXXX....  ..........XX",
"XXXXXX............XXXXOOOOOOOOOOOO  ..OOOOXXXX....  ..........XX",
"..XXXXXXXXOOOOOOOOOOOOOOOOOOOO........OOOOOOOOOO    XXXXXX......",
"..XXXXXXXXOOOOOOOOOOOOOOOOOOOO........OOOOOOOOOO    XXXXXX......",
"..  XXXXXXXXOOOOOOOOOOOOOO..........OOOOOOOOOOOOOO  ..XXXXXX....",
"..  XXXXXXXXOOOOOOOOOOOOOO..........OOOOOOOOOOOOOO  ..XXXXXX....",
"XX..  ........XXXX....OO..........OOOOOOXXXXXXXXOOOOOOOOOOXXXXXX",
"XX..  ........XXXX....OO..........OOOOOOXXXXXXXXOOOOOOOOOOXXXXXX",
"XX      ............  ..........OOOOOO........XXXXOOOOOOXXXXXXXX",
"XX      ............  ..........OOOOOO........XXXXOOOOOOXXXXXXXX",
"XXXX..OOOOXXXXXXXX      XXXX..OOOOXX..................OO......XX",
"XXXX..OOOOXXXXXXXX      XXXX..OOOOXX..................OO......XX",
"..OOOOOOOOXX..XXXXXXXX  XXXXOOXXXXXXXXXX....OO..OO..............",
"..OOOOOOOOXX..XXXXXXXX  XXXXOOXXXXXXXXXX....OO..OO..............",
"XXXXOOOOOO........XXXXXXXX..........OOOOOOOOOOOOOOOOOOOOOOOO    ",
"XXXXOOOOOO........XXXXXXXX..........OOOOOOOOOOOOOOOOOOOOOOOO    ",
"XXXXXXXXOOOO..........................OOOOOOOOOOOOOOOOOOOO      ",
"XXXXXXXXOOOO..........................OOOOOOOOOOOOOOOOOOOO      ",
"............XX....................XXXX  XXXXOO..........    XXXX",
"............XX....................XXXX  XXXXOO..........    XXXX",
"....OO....XXXXXXXXXX............XXXX    XXXXXXXX....OOOO..XXXX..",
"....OO....XXXXXXXXXX............XXXX    XXXXXXXX....OOOO..XXXX..",
"XXOO..OOXXXXooooXXXXOOOOOOOOOOOOOOXXXXXXXXXXOOOOOOOOOOOO      XX",
"XXOO..OOXXXXooooXXXXOOOOOOOOOOOOOOXXXXXXXXXXOOOOOOOOOOOO      XX",
"OO  OOOOOOXXooooXX....OOOOOOOO..XXXXXXXXXXXXXXXXOOOOOOOOOOOO    ",
"OO  OOOOOOXXooooXX....OOOOOOOO..XXXXXXXXXXXXXXXXOOOOOOOOOOOO    ",
"XXXXXXXXXX..............OOOO..........  ..............OOXXXXXXXX",
"XXXXXXXXXX..............OOOO..........  ..............OOXXXXXXXX",
"XXXX............OO................  XX  ..........OO....XXXXXXXX",
"XXXX............OO................  XX  ..........OO....XXXXXXXX",
"XXXXOOOOOOOOOO  OOOO........XXXXXXXXXXOOOOOOOOOOOOOOOOOOOOOOXXXX",
"XXXXOOOOOOOOOO  OOOO........XXXXXXXXXXOOOOOOOOOOOOOOOOOOOOOOXXXX",
"OOXXOOOOOOOOOO    OOOO..XXXXXXXX  XXOOOOOOOOOOOOOOOOOOOOOOOOOOOO",
"OOXXOOOOOOOOOO    OOOO..XXXXXXXX  XXOOOOOOOOOOOOOOOOOOOOOOOOOOOO",
"XX......OO......  ..........XXXX      XXXX..........OOOOOOOOOOXX",
"XX......OO......  ..........XXXX      XXXX..........OOOOOOOOOOXX",
"XXXXXX........................XX    XXXXXX..............OOXXXXXX",
"XXXXXX........................XX    XXXXXX..............OOXXXXXX",
"XXXXXXXXOOOO..........OOOO........  ........OOOOOO....XXXXXXXXXX",
"XXXXXXXXOOOO..........OOOO........  ........OOOOOO....XXXXXXXXXX",
"XXXXXXXXXXOOOO......OOOOOOOO....    ....OOOOOOOOOOOOXXXXXXXXXXXX",
"XXXXXXXXXXOOOO......OOOOOOOO....    ....OOOOOOOOOOOOXXXXXXXXXXXX",
"    XXXXXXXXXXOO....XXXXXXXXXXXXXXOOOOOOOOXXXXXXXXOOOOOOOOOO    ",
"    XXXXXXXXXXOO....XXXXXXXXXXXXXXOOOOOOOOXXXXXXXXOOOOOOOOOO    ",
"        XXXX..........XXXXXX....OOOOOOOOXXXXXXXXXX..OOOOOOOOOO  ",
"        XXXX..........XXXXXX....OOOOOOOOXXXXXXXXXX..OOOOOOOOOO  ",
"................................OOOOOO..XX................XXXXXX",
"................................OOOOOO..XX................XXXXXX",
"XXXX................................OOOO..  ..................OO",
"XXXX................................OOOO..  ..................OO",
"OOXXOOOOOOOOOOOOOOOOOOOOXXXXXX..............  ....XXXXXXXXXXOOOO",
"OOXXOOOOOOOOOOOOOOOOOOOOXXXXXX..............  ....XXXXXXXXXXOOOO",
"XXXXXXOOOO....OOOOOOOOXXXXXX......XX..    ......XXXXXXXXOOOOOOOO",
"XXXXXXOOOO....OOOOOOOOXXXXXX......XX..    ......XXXXXXXXOOOOOOOO",
"XXXXXXXX............................OOOOOOOOOOOOXXXX........XXXX",
"XXXXXXXX............................OOOOOOOOOOOOXXXX........XXXX",
"XXXXXXXXXXXXXX..................XXXXXXXXOOOOOOXX..........XXXXXX",
"XXXXXXXXXXXXXX..................XXXXXXXXOOOOOOXX..........XXXXXX",
"................    OOOOOOOOXXXXXXXXXXXXXXXX..XX..........XXXXXX",
"................    OOOOOOOOXXXXXXXXXXXXXXXX..XX..........XXXXXX",
"..............    OOOOOOOOOOOOOOXXXXXXXXXX..............XXXX....",
"..............    OOOOOOOOOOOOOOXXXXXXXXXX..............XXXX...."
}
