/* XPM */
static char *New_Piskel_9_1707910729[] = {
/* columns rows colors chars-per-pixel */
"64 64 11 1 ",
"  c black",
". c gray29",
"X c gray39",
"o c #686868",
"O c gray45",
"+ c #797979",
"@ c #7E7E7E",
"# c #8E8E8E",
"$ c #939393",
"% c #AAAAAA",
"& c gainsboro",
/* pixels */
"@@@@OOOOOOOOOOOOOOOO@@@@######oooooo####@@@@OOOOOOOOOOOOOOOO@@@@",
"@@@@OOOOOOOOOOOOOOOO@@@@######oooooo####@@@@OOOOOOOOOOOOOOOO@@@@",
"@@@@@@OOOOOOOOOOOO@@@@############ooOO####@@@@OOOOooOOOOOOOOOO@@",
"@@@@@@OOOOOOOOOOOO@@@@############ooOO####@@@@OOOOooOOOOOOOOOO@@",
"OO@@@@@@@@####################OOOOOOOO##########oooo@@@@@@OOOOOO",
"OO@@@@@@@@####################OOOOOOOO##########oooo@@@@@@OOOOOO",
"OOoo@@@@@@@@##############OOOOOOOOOO##############ooOO@@@@@@OOOO",
"OOoo@@@@@@@@##############OOOOOOOOOO##############ooOO@@@@@@OOOO",
"&&&&&&&&&&&&&&&&&&&&&&&&&&&&&&&&&&&&&&&&&&&&&&&&&&&&&&&&&&&&&&&&",
"&&&&&&&&&&&&&&&&&&&&&&&&&&&&&&&&&&&&&&&&&&&&&&&&&&&&&&&&&&&&&&&&",
"&&&&&&&&&&&&&&&&&&&&&&&&&&&&&&&&&&&&&&&&&&&&&&&&&&&&&&&&&&&&&&&&",
"&&&&&&&&&&&&&&&&&&&&&&&&&&&&&&&&&&&&&&&&&&&&&&&&&&&&&&&&&&&&&&&&",
"&&&&&&&&&&&&&&&&&&&&&&%%%%%%%%%%&&&&&&&&&&&&&&&&&&&&&&&&&&&&&&&&",
"&&&&&&&&&&&&&&&&&&&&&&%%%%%%%%%%&&&&&&&&&&&&&&&&&&&&&&&&&&&&&&&&",
"&&&&&&&&&&..................................&&&&&&&&&&&&&&&&&&&&",
"&&&&&&&&&&..................................&&&&&&&&&&&&&&&&&&&&",
"&&&&&&&&XXXXXXXXXXXXXXXXXXXXXXXXXXXXXXXXXXXXXX&&&&&&&&&&&&&&&&&&",
"&&&&&&&&XXXXXXXXXXXXXXXXXXXXXXXXXXXXXXXXXXXXXX&&&&&&&&&&&&&&&&&&",
"&&&&&&&&XXXXXXXXXXXXXXXXXXXXXXXXXXXXXXXXXXXXXX&&&&&&&&&&&&&&&&&&",
"&&&&&&&&XXXXXXXXXXXXXXXXXXXXXXXXXXXXXXXXXXXXXX&&&&&&&&&&&&&&&&&&",
"&&&&&&&&&&&&&&&&&&&&&&%%%%%%%%%%&&&&&&&&&&&&&&&&&&&&&&&&&&&&&&&&",
"&&&&&&&&&&&&&&&&&&&&&&%%%%%%%%%%&&&&&&&&&&&&&&&&&&&&&&&&&&&&&&&&",
"&&&&&&&&&&&&&&&&&&&&&&&&&&&&&&&&&&&&&&&&&&&&&&&&&&&&&&&&&&&&&&&&",
"&&&&&&&&&&&&&&&&&&&&&&&&&&&&&&&&&&&&&&&&&&&&&&&&&&&&&&&&&&&&&&&&",
"&&&&&&&&&&&&&&&&&&&&&&&&&&&&&&&&&&&&&&&&              &&&&&&&&&&",
"&&&&&&&&&&&&&&&&&&&&&&&&&&&&&&&&&&&&&&&&              &&&&&&&&&&",
"&&&&&&&&&&&&&&&&&&&&&&&&&&&&&&&&&&&&&&                  &&&&&&&&",
"&&&&&&&&&&&&&&&&&&&&&&&&&&&&&&&&&&&&&&                  &&&&&&&&",
"&&&&&&&&&&&&&&&&&&&&&&&&&&&&&&&&&&&&&&        &&%%&&    &&&&&&&&",
"&&&&&&&&&&&&&&&&&&&&&&&&&&&&&&&&&&&&&&        &&%%&&    &&&&&&&&",
"&&&&&&&&&&&&&&&&&&&&&&&&&&&&&&&&&&&&&&        &&&&&&    &&&&&&&&",
"&&&&&&&&&&&&&&&&&&&&&&&&&&&&&&&&&&&&&&        &&&&&&    &&&&&&&&",
"&&&&&&&&++++++++++++++++++++++++++++++++++++  &&&&&&    &&&&&&&&",
"&&&&&&&&++++++++++++++++++++++++++++++++++++  &&&&&&    &&&&&&&&",
"&&&&&&&&++$$$$$$$$$$$$$$$$$$++$$$$++$$$$$$++  &&&&&&    &&&&&&&&",
"&&&&&&&&++$$$$$$$$$$$$$$$$$$++$$$$++$$$$$$++  &&&&&&    &&&&&&&&",
"&&&&&&&&++$$$$$$$$$$$$$$$$$$++++++++$$$$$$++            &&&&&&&&",
"&&&&&&&&++$$$$$$$$$$$$$$$$$$++++++++$$$$$$++            &&&&&&&&",
"&&&&&&&&++$$$$$$$$$$$$$$$$$$++$$++++$$$$$$++            &&&&&&&&",
"&&&&&&&&++$$$$$$$$$$$$$$$$$$++$$++++$$$$$$++            &&&&&&&&",
"&&&&&&&&++$$$$$$$$$$$$$$$$++$$$$$$++$$$$$$++          &&&&&&&&&&",
"&&&&&&&&++$$$$$$$$$$$$$$$$++$$$$$$++$$$$$$++          &&&&&&&&&&",
"&&&&&&&&++++++++++++++++++++++++++++++++++++&&&&&&&&&&&&&&&&&&&&",
"&&&&&&&&++++++++++++++++++++++++++++++++++++&&&&&&&&&&&&&&&&&&&&",
"&&&&&&&&&&&&&&&&&&&&&&&&&&&&&&&&&&&&&&&&&&&&&&&&&&&&&&&&&&&&&&&&",
"&&&&&&&&&&&&&&&&&&&&&&&&&&&&&&&&&&&&&&&&&&&&&&&&&&&&&&&&&&&&&&&&",
"&&&&&&&&&&&&&&&&&&&&&&&&&&&&&&&&&&&&&&&&&&&&&&&&&&&&&&&&&&&&&&&&",
"&&&&&&&&&&&&&&&&&&&&&&&&&&&&&&&&&&&&&&&&&&&&&&&&&&&&&&&&&&&&&&&&",
"&&&&&&&&&&&&&&&&&&&&&&&&&&&&&&&&&&&&&&&&&&&&&&&&&&&&&&&&&&&&&&&&",
"&&&&&&&&&&&&&&&&&&&&&&&&&&&&&&&&&&&&&&&&&&&&&&&&&&&&&&&&&&&&&&&&",
"@@@@OOOOOOOOOOOOOOOOOOOOOOOOOOOOOOOO####OOooOOOOOOOOOOOOOOOOOO##",
"@@@@OOOOOOOOOOOOOOOOOOOOOOOOOOOOOOOO####OOooOOOOOOOOOOOOOOOOOO##",
"##@@####################@@@@@@OOOOOOOOOOOOOOooOOOO@@@@@@@@@@####",
"##@@####################@@@@@@OOOOOOOOOOOOOOooOOOO@@@@@@@@@@####",
"@@@@@@####OOOO########@@@@@@OOOOOO@@OOooooOOOOOO@@@@@@@@########",
"@@@@@@####OOOO########@@@@@@OOOOOO@@OOooooOOOOOO@@@@@@@@########",
"@@@@@@@@OOOOOOOOOOOOOOOOOOOOOOOOOOOO############@@@@OOOOOOOO@@@@",
"@@@@@@@@OOOOOOOOOOOOOOOOOOOOOOOOOOOO############@@@@OOOOOOOO@@@@",
"@@@@@@@@@@@@@@OOOOOOOOOOOOOOOOOO@@@@@@@@######@@OOOOOOOOOO@@@@@@",
"@@@@@@@@@@@@@@OOOOOOOOOOOOOOOOOO@@@@@@@@######@@OOOOOOOOOO@@@@@@",
"OOOOOOOOOOOOOOOOoooo########@@@@@@@@@@@@@@@@OO@@OOOOOOOOOO@@@@@@",
"OOOOOOOOOOOOOOOOoooo########@@@@@@@@@@@@@@@@OO@@OOOOOOOOOO@@@@@@",
"OOOOOOOOOOOOOOoooo##############@@@@@@@@@@OOOOOOOOOOOOOO@@@@OOOO",
"OOOOOOOOOOOOOOoooo##############@@@@@@@@@@OOOOOOOOOOOOOO@@@@OOOO",
};
